<?xml version="1.0" encoding="UTF-8" standalone="no"?>
<svg xmlns="http://www.w3.org/2000/svg" xmlns:xlink="http://www.w3.org/1999/xlink" width="400" height="300" viewBox="0 0 400 300">
  <!-- Background -->
  <rect width="400" height="300" fill="white" stroke="#333" stroke-width="2" />
  
  <!-- Table -->
  <rect x="100" y="200" width="200" height="20" fill="#8B4513" />
  <rect x="110" y="220" width="10" height="80" fill="#8B4513" />
  <rect x="280" y="220" width="10" height="80" fill="#8B4513" />
  
  <!-- Plate -->
  <ellipse cx="200" cy="190" rx="50" ry="15" fill="#FFFFFF" stroke="#333" stroke-width="1" />
  
  <!-- Carrot -->
  <path d="M180,180 L190,160 L200,180 Z" fill="#FF7F50" />
  <path d="M190,160 L190,150" stroke="#228B22" stroke-width="3" />
  
  <!-- Lettuce -->
  <path d="M210,180 C220,175 230,175 240,180 C230,185 220,185 210,180 Z" fill="#90EE90" />
  
  <!-- Rabbit character -->
  <!-- Body -->
  <ellipse cx="200" cy="130" rx="40" ry="50" fill="#f5f5f5" />
  
  <!-- Head -->
  <circle cx="200" cy="70" r="30" fill="#f5f5f5" />
  
  <!-- Ears -->
  <ellipse cx="180" cy="30" rx="8" ry="25" fill="#f5f5f5" stroke="#ddd" stroke-width="1" />
  <ellipse cx="220" cy="30" rx="8" ry="25" fill="#f5f5f5" stroke="#ddd" stroke-width="1" />
  <ellipse cx="180" cy="30" rx="4" ry="15" fill="#ffcccc" />
  <ellipse cx="220" cy="30" rx="4" ry="15" fill="#ffcccc" />
  
  <!-- Eyes -->
  <circle cx="185" cy="65" r="6" fill="white" stroke="#333" stroke-width="1" />
  <circle cx="215" cy="65" r="6" fill="white" stroke="#333" stroke-width="1" />
  <circle cx="185" cy="65" r="3" fill="#333" />
  <circle cx="215" cy="65" r="3" fill="#333" />
  
  <!-- Nose -->
  <ellipse cx="200" cy="75" rx="5" ry="4" fill="#ffcccc" />
  
  <!-- Mouth -->
  <path d="M190,85 Q200,95 210,85" stroke="#333" stroke-width="2" fill="none" />
  
  <!-- Arms -->
  <path d="M170,120 Q150,140 140,120" stroke="#f5f5f5" stroke-width="12" fill="none" />
  <path d="M230,120 Q250,140 260,120" stroke="#f5f5f5" stroke-width="12" fill="none" />
  
  <!-- Feet -->
  <ellipse cx="180" cy="180" rx="12" ry="8" fill="#f5f5f5" />
  <ellipse cx="220" cy="180" rx="12" ry="8" fill="#f5f5f5" />
  
  <!-- Speech bubble -->
  <path d="M250,50 Q300,30 320,70 Q340,100 320,130 Q300,150 270,140 L260,160 L265,135 Q240,120 250,50" fill="white" stroke="#333" stroke-width="2" />
  <text x="285" y="80" font-family="Arial" font-size="12" text-anchor="middle">I eat healthy</text>
  <text x="285" y="100" font-family="Arial" font-size="12" text-anchor="middle">vegetables</text>
  <text x="285" y="120" font-family="Arial" font-size="12" text-anchor="middle">every day!</text>
</svg>