<?xml version="1.0" encoding="UTF-8" standalone="no"?>
<svg xmlns="http://www.w3.org/2000/svg" xmlns:xlink="http://www.w3.org/1999/xlink" width="400" height="300" viewBox="0 0 400 300">
  <!-- Background -->
  <rect width="400" height="300" fill="white" stroke="#333" stroke-width="2" />
  
  <!-- Bookshelf -->
  <rect x="50" y="50" width="300" height="100" fill="#8B4513" />
  <rect x="60" y="60" width="80" height="80" fill="#D2691E" />
  <rect x="150" y="60" width="80" height="80" fill="#A52A2A" />
  <rect x="240" y="60" width="80" height="80" fill="#CD853F" />
  
  <!-- Rabbit character -->
  <!-- Body -->
  <ellipse cx="200" cy="200" rx="50" ry="60" fill="#f5f5f5" />
  
  <!-- Head -->
  <circle cx="200" cy="130" r="40" fill="#f5f5f5" />
  
  <!-- Ears -->
  <ellipse cx="180" cy="80" rx="10" ry="30" fill="#f5f5f5" stroke="#ddd" stroke-width="1" />
  <ellipse cx="220" cy="80" rx="10" ry="30" fill="#f5f5f5" stroke="#ddd" stroke-width="1" />
  <ellipse cx="180" cy="80" rx="5" ry="20" fill="#ffcccc" />
  <ellipse cx="220" cy="80" rx="5" ry="20" fill="#ffcccc" />
  
  <!-- Eyes -->
  <circle cx="185" cy="125" r="8" fill="white" stroke="#333" stroke-width="1" />
  <circle cx="215" cy="125" r="8" fill="white" stroke="#333" stroke-width="1" />
  <circle cx="185" cy="125" r="4" fill="#333" />
  <circle cx="215" cy="125" r="4" fill="#333" />
  
  <!-- Nose -->
  <ellipse cx="200" cy="135" rx="7" ry="5" fill="#ffcccc" />
  
  <!-- Mouth -->
  <path d="M190,145 Q200,155 210,145" stroke="#333" stroke-width="2" fill="none" />
  
  <!-- Arms -->
  <path d="M160,180 Q140,200 130,170" stroke="#f5f5f5" stroke-width="15" fill="none" />
  <path d="M240,180 Q260,200 270,170" stroke="#f5f5f5" stroke-width="15" fill="none" />
  
  <!-- Feet -->
  <ellipse cx="175" cy="260" rx="15" ry="10" fill="#f5f5f5" />
  <ellipse cx="225" cy="260" rx="15" ry="10" fill="#f5f5f5" />
  
  <!-- Book -->
  <rect x="170" y="170" width="60" height="40" fill="#4169E1" stroke="#333" stroke-width="1" />
  <rect x="170" y="170" width="30" height="40" fill="#6495ED" stroke="#333" stroke-width="1" />
  <line x1="200" y1="170" x2="200" y2="210" stroke="#333" stroke-width="1" />
  
  <!-- Speech bubble -->
  <path d="M250,100 Q300,80 320,120 Q340,150 320,180 Q300,200 270,190 L260,210 L265,185 Q240,170 250,100" fill="white" stroke="#333" stroke-width="2" />
  <text x="285" y="140" font-family="Arial" font-size="12" text-anchor="middle">I love</text>
  <text x="285" y="160" font-family="Arial" font-size="12" text-anchor="middle">reading</text>
  <text x="285" y="180" font-family="Arial" font-size="12" text-anchor="middle">books!</text>
</svg>