<svg width="400" height="300" xmlns="http://www.w3.org/2000/svg">
  <!-- Background -->
  <rect width="400" height="300" fill="white" stroke="#333" stroke-width="2"/>
  
  <!-- Office floor -->
  <rect x="0" y="250" width="400" height="50" fill="#D3D3D3"/>
  
  <!-- Desk -->
  <rect x="100" y="200" width="200" height="50" fill="#8B4513" rx="5"/>
  <rect x="90" y="240" width="20" height="30" fill="#654321"/>
  <rect x="290" y="240" width="20" height="30" fill="#654321"/>
  
  <!-- Computer -->
  <rect x="150" y="180" width="100" height="60" fill="#000" rx="5"/>
  <rect x="155" y="185" width="90" height="50" fill="#4169E1"/>
  <rect x="195" y="240" width="20" height="10" fill="#696969"/>
  
  <!-- Rabbit body -->
  <ellipse cx="200" cy="220" rx="35" ry="25" fill="#F5DEB3"/>
  
  <!-- Rabbit head -->
  <circle cx="200" cy="180" r="22" fill="#F5DEB3"/>
  
  <!-- Rabbit ears -->
  <ellipse cx="190" cy="162" rx="7" ry="18" fill="#F5DEB3"/>
  <ellipse cx="210" cy="162" rx="7" ry="18" fill="#F5DEB3"/>
  <ellipse cx="190" cy="162" rx="3" ry="13" fill="#FFB6C1"/>
  <ellipse cx="210" cy="162" rx="3" ry="13" fill="#FFB6C1"/>
  
  <!-- Rabbit eyes -->
  <circle cx="195" cy="175" r="3" fill="#000"/>
  <circle cx="205" cy="175" r="3" fill="#000"/>
  
  <!-- Rabbit nose -->
  <ellipse cx="200" cy="183" rx="2" ry="1" fill="#FFB6C1"/>
  
  <!-- Rabbit arms (typing) -->
  <ellipse cx="175" cy="200" rx="12" ry="6" fill="#F5DEB3" transform="rotate(-10 175 200)"/>
  <ellipse cx="225" cy="200" rx="12" ry="6" fill="#F5DEB3" transform="rotate(10 225 200)"/>
  
  <!-- Rabbit legs -->
  <ellipse cx="185" cy="235" rx="8" ry="12" fill="#F5DEB3"/>
  <ellipse cx="215" cy="235" rx="8" ry="12" fill="#F5DEB3"/>
  
  <!-- Office chair -->
  <circle cx="200" cy="245" r="15" fill="#2F4F4F"/>
  <rect x="195" y="255" width="10" height="20" fill="#696969"/>
  
  <!-- Coffee cup -->
  <rect x="120" y="190" width="15" height="20" fill="#FFF" rx="2"/>
  <rect x="122" y="192" width="11" height="16" fill="#8B4513"/>
  <ellipse cx="135" cy="200" rx="2" ry="3" fill="#FFF"/>
  
  <!-- Papers -->
  <rect x="260" y="185" width="30" height="40" fill="#FFF" stroke="#000" stroke-width="1"/>
  <line x1="265" y1="195" x2="285" y2="195" stroke="#000" stroke-width="1"/>
  <line x1="265" y1="205" x2="285" y2="205" stroke="#000" stroke-width="1"/>
  <line x1="265" y1="215" x2="285" y2="215" stroke="#000" stroke-width="1"/>
  
  <!-- Speech bubble -->
  <ellipse cx="320" cy="120" rx="70" ry="35" fill="#FFF" stroke="#000" stroke-width="2"/>
  <polygon points="270,140 260,150 270,150" fill="#FFF" stroke="#000" stroke-width="2"/>
  
  <!-- Text -->
  <text x="320" y="115" text-anchor="middle" font-family="Arial, sans-serif" font-size="11" fill="#000">I work hard</text>
  <text x="320" y="130" text-anchor="middle" font-family="Arial, sans-serif" font-size="11" fill="#000">every day!</text>
</svg>